<svg xmlns="http://www.w3.org/2000/svg" width="67" height="124" viewBox="0 0 67 124">
  <g fill="none" fill-rule="evenodd">
    <path fill="#475569" d="M16,0 L63,0 C65.209139,-4.05812251e-16 67,1.790861 67,4 L67,107 C67,109.209139 65.209139,111 63,111 L20,111 C17.790861,111 16,109.209139 16,107 L16,0 L16,0 Z"/>
    <polygon fill="#64748B" points="48.48 13.29 16 0 16 13"/>
    <rect width="51" height="111" y="13" fill="#94A3B8" rx="4"/>
    <line x1="9.5" x2="41.5" y1="69.5" y2="69.5" stroke="#64748B" stroke-linecap="round" stroke-width="4"/>
    <line x1="10" x2="39" y1="89" y2="89" stroke="#64748B" stroke-linecap="round" stroke-width="2"/>
    <line x1="10" x2="36" y1="94" y2="94" stroke="#64748B" stroke-linecap="round" stroke-width="2"/>
    <line x1="10" x2="42" y1="99" y2="99" stroke="#64748B" stroke-linecap="round" stroke-width="2"/>
    <line x1="10" x2="32" y1="104" y2="104" stroke="#64748B" stroke-linecap="round" stroke-width="2"/>
    <circle cx="25" cy="40" r="11" fill="#64748B"/>
  </g>
</svg>
