<svg xmlns="http://www.w3.org/2000/svg" width="90" height="120" viewBox="0 0 90 120">
  <g fill="none" fill-rule="evenodd">
    <g transform="translate(15)">
      <rect width="70" height="100.286" x="5" fill="#64748B" rx="4"/>
      <path fill="#475569" d="M67.6038336,2 L70.7091866,4.9683593 C72.0237651,5.28698149 73,6.47150683 73,7.88404405 L73,99.8840441 C73,101.540898 71.6568542,102.884044 70,102.884044 L8,102.884044 C6.64382042,102.884044 5.49782117,101.984155 5.12654725,100.748922 L2.12181019,97.9301287 L4.99981019,95.246 L5,7.88404405 C5,6.2271898 6.34314575,4.88404405 8,4.88404405 L64.4928102,4.884 L67.6038336,2 Z" transform="matrix(1 0 0 -1 0 104.884)"/>
      <rect width="70" height="100.286" y="4.714" fill="#64748B" rx="4"/>
      <line x1="20.378" x2="50.622" y1="29.321" y2="29.321" stroke="#71717A" stroke-linecap="round" stroke-width="4"/>
    </g>
    <g transform="translate(0 15)">
      <rect width="70" height="100.286" x="5" fill="#94A3B8" rx="4"/>
      <path fill="#64748B" d="M67.6038336,2 L70.7091866,4.9683593 C72.0237651,5.28698149 73,6.47150683 73,7.88404405 L73,99.8840441 C73,101.540898 71.6568542,102.884044 70,102.884044 L8,102.884044 C6.64382042,102.884044 5.49782117,101.984155 5.12654725,100.748922 L2.12181019,97.9301287 L4.99981019,95.246 L5,7.88404405 C5,6.2271898 6.34314575,4.88404405 8,4.88404405 L64.4928102,4.884 L67.6038336,2 Z" transform="matrix(1 0 0 -1 0 104.884)"/>
      <rect width="70" height="100.286" y="4.714" fill="#94A3B8" rx="4"/>
      <line x1="20.378" x2="50.622" y1="29.321" y2="29.321" stroke="#64748B" stroke-linecap="round" stroke-width="4"/>
    </g>
  </g>
</svg>
